<svg xmlns="http://www.w3.org/2000/svg" viewBox="0 0 200 200">
  <circle cx="100" cy="100" r="64" fill="none" stroke="#3DD9E0" stroke-width="5"/>
  <path d="M100 44 L104.5 50 L100 56 L95.5 50 Z" fill="#3DD9E0"/>
  <path d="M100 144 L104.5 150 L100 156 L95.5 150 Z" fill="#3DD9E0"/>
  <path d="M44 100 L50 95.5 L56 100 L50 104.5 Z" fill="#3DD9E0"/>
  <path d="M144 100 L150 95.5 L156 100 L150 104.5 Z" fill="#3DD9E0"/>
  <rect x="74" y="102" width="15" height="38" rx="2" fill="#3DD9E0"/>
  <rect x="93" y="84" width="15" height="56" rx="2" fill="#3DD9E0"/>
  <rect x="112" y="66" width="15" height="74" rx="2" fill="#3DD9E0"/>
  <path d="M48 134 C 86 128, 118 104, 150 60" fill="none" stroke="#3DD9E0" stroke-width="7" stroke-linecap="round"/>
  <path d="M161 47 L139 57 L156 71 Z" fill="#3DD9E0"/>
  <g fill="#3DD9E0" font-family="DejaVu Sans, Arial, sans-serif" font-weight="700" font-size="24" text-anchor="middle">
    <text x="100" y="31">N</text><text x="100" y="191">S</text><text x="21" y="109">W</text><text x="179" y="109">E</text>
  </g></svg>
